# xmcd
#
# Track frame offsets:
#	150
#	15761
#	31110
#	45262
#	59097
#	72003
#	88456
#	117795
#	132181
#	147972
#	160701
#	180338
#	191971
#	215723
#	229229
#	244788
#
# Disc length: 3421 seconds
#
# Revision: 1
# Processed by: cddbd v1.5.2PL0 Copyright (c) Steve Scherf et al.
# Submitted via: audiograbber 1.83.01
#
DISCID=d90d5b10
DTITLE=Tom Laverty - All American Boy Tom Laverty
DYEAR=2006
DGENRE=Country
TTITLE0=TEACH YOUR CHILDREN
TTITLE1=BALLYCASTLE TO BUNDORAN
TTITLE2=HOLD ON TO GOD
TTITLE3=ALL AMERICAN BOY
TTITLE4=FORTY SHADES OF GREEN
TTITLE5=IRISH ROSE
TTITLE6=GREEN FIELDS OF FRANCE
TTITLE7=TIPPERARY ON MY MIND
TTITLE8=GREEN GLENS OF ANTRIM
TTITLE9=THE OLD SCHOOL YARD
TTITLE10=RATHLIN ISLAND
TTITLE11=GONNA BE A COUNTRY BOY AGAIN
TTITLE12=JONES/SKAGGS COUNTRY SET
TTITLE13=CLIFFS OF DOONEEN 
TTITLE14=SCOTTISH PARTY SET
TTITLE15=AULD LAMMAS FAIR
EXTD=
EXTT0=
EXTT1=
EXTT2=
EXTT3=
EXTT4=
EXTT5=
EXTT6=
EXTT7=
EXTT8=
EXTT9=
EXTT10=
EXTT11=
EXTT12=
EXTT13=
EXTT14=
EXTT15=
PLAYORDER=
